<svg width="278" height="100" viewBox="0 0 278 100" fill="none" xmlns="http://www.w3.org/2000/svg">
<rect width="278" height="100" rx="10" fill="#191A19"/>
<path d="M139 0H268C273.523 0 278 4.47715 278 10V90C278 95.5228 273.523 100 268 100H139V0Z" fill="#D8E9A8"/>
<path d="M53 46.75V31H57.5H62V33.25V35.5H64.25H66.5V37.75V40H68.75H71V37.75V35.5H73.25H75.5V33.25V31H80H84.5V46.75V62.5H80H75.5V55.75V49H73.25H71V51.25V53.5H68.75H66.5V51.25V49H64.25H62V55.75V62.5H57.5H53V46.75Z" fill="#4E9F3D"/>
<path d="M199 33.25V31H208H217V33.25V35.5H219.25H221.5V37.75V40H217H212.5V37.75V35.5H208H203.5V37.75V40H201.25H199V46.75V53.5H201.25H203.5V55.75V58H208H212.5V55.75V53.5H217H221.5V55.75V58H219.25H217V60.25V62.5H208H199V60.25V58H196.75H194.5V55.75V53.5H192.25H190V46.75V40H192.25H194.5V37.75V35.5H196.75H199V33.25Z" fill="black"/>
</svg>
